# xmcd
#
# Track frame offsets:
#	150
#	13235
#	26625
#	42145
#	54610
#	66205
#	82150
#	95135
#	108095
#	121890
#	134070
#	146475
#	158850
#	172995
#	186645
#	197560
#	209215
#	222620
#	235130
#	246460
#	257585
#	269470
#	282325
#	295155
#	308985
#	320955
#
# Disc length: 4419 seconds
#
# Revision: 0
# Processed by: cddbd v1.4PL0 Copyright (c) Steve Scherf et al.
# Submitted via: dBpowerAMP V4.0
#
DISCID=aa11411a
DTITLE=Unknown - Local Oldies
DYEAR=1900
DGENRE=
TTITLE0=Charlie and the Jives - Mercy Baby
TTITLE1=Charlie and the Jives -For the Rest of My Life
TTITLE2=Entertainers - I Can't Do Enough
TTITLE3=Ricky Davila - The Day I Found You
TTITLE4=The Commands - Here We Go Round the Go-Go
TTITLE5=Rudy T. and the Reno Bops-All I Could Do Was Cry
TTITLE6=Sunny and the Sunliners - Fly Me To the Moon
TTITLE7=Royal Jesters - We Go Together
TTITLE8=Henry and the Laveers - What to Do
TTITLE9=Ray Liberto - Wicked, Wicked Woman
TTITLE10=The Royal Jesters - Muchachita
TTITLE11=Sonny Ace and the Twisters - You'll Tear Our Dreams Apart
TTITLE12=The Royal Jesters - I Know
TTITLE13=Henry Pena and the Casuals 
TTITLE14=Casino Royale - To Be My Girl
TTITLE15=Sunny and the Sunliners - Token of Love
TTITLE16=Sunny and the Sunliners -Teenage Promise
TTITLE17=Royal Jesters - Love Me
TTITLE18=Royal Jesters - I Want to be Loved
TTITLE19=Sunny and the Sunliners - You Gave Me a True Love
TTITLE20=Sunny and the Sunliners - It's Too Late
TTITLE21=Royal Jesters - Let There Be You
TTITLE22=Dino and the Dell-Tones - Daydream
TTITLE23=Danny and the Dreamers - Eternal Love
TTITLE24=Dimas - Why Am I Treated So Badly
TTITLE25=Jr. Jesse and the Teardrops - Little Playgirl
EXTD=Local Oldies
EXTT0=
EXTT1=
EXTT2=
EXTT3=
EXTT4=
EXTT5=
EXTT6=
EXTT7=
EXTT8=
EXTT9=
EXTT10=
EXTT11=
EXTT12=
EXTT13=
EXTT14=
EXTT15=
EXTT16=
EXTT17=
EXTT18=
EXTT19=
EXTT20=
EXTT21=
EXTT22=
EXTT23=
EXTT24=
EXTT25=
PLAYORDER=
